<svg id="Layer_1" data-name="Layer 1" xmlns="http://www.w3.org/2000/svg" viewBox="0 0 600 600"><defs><style>.cls-1,.cls-10,.cls-7{fill:#fcf7e1;}.cls-1,.cls-11,.cls-2,.cls-3,.cls-4,.cls-5,.cls-6,.cls-7,.cls-8{stroke:#014e7a;}.cls-1,.cls-2,.cls-3,.cls-4,.cls-5,.cls-6,.cls-7,.cls-8,.cls-9{stroke-miterlimit:10;}.cls-1,.cls-5,.cls-9{stroke-width:12px;}.cls-2,.cls-6{fill:#fed403;}.cls-2,.cls-3,.cls-4{stroke-width:8px;}.cls-3,.cls-8{fill:#3db54a;}.cls-11,.cls-12,.cls-4{fill:none;}.cls-5{fill:#0077bd;}.cls-11,.cls-6,.cls-7,.cls-8{stroke-width:5px;}.cls-9{fill:#014e7a;stroke:#0077bd;}.cls-11,.cls-12{stroke-linecap:round;stroke-linejoin:round;}.cls-12{stroke:#fed403;stroke-width:6px;}</style></defs><title>ben-icon</title><circle class="cls-1" cx="300" cy="373.84" r="209.24"/><rect class="cls-2" x="282.39" y="10.92" width="35.22" height="400" rx="17.61" ry="17.61" transform="translate(510.93 -89.08) rotate(90)"/><rect class="cls-3" x="282.39" y="60.06" width="35.22" height="410.48" rx="17.61" ry="17.61" transform="translate(565.31 -34.7) rotate(90)"/><line class="cls-4" x1="299.34" y1="73.18" x2="299.34" y2="137.73"/><polygon class="cls-3" points="318.34 20.15 314.44 39.43 328.11 53.57 308.57 55.81 299.34 73.18 291.17 55.3 271.8 51.89 286.29 38.59 283.54 19.11 300.67 28.78 318.34 20.15"/><line class="cls-4" x1="367.79" y1="88.85" x2="367.79" y2="137.73"/><polygon class="cls-2" points="381.92 90.98 368.64 84.24 355.56 91.35 357.87 76.64 347.06 66.4 361.76 64.05 368.17 50.6 374.94 63.86 389.71 65.8 379.19 76.34 381.92 90.98"/><line class="cls-4" x1="231.06" y1="88.85" x2="231.06" y2="137.73"/><polygon class="cls-2" points="245.19 90.98 231.91 84.24 218.83 91.35 221.14 76.64 210.33 66.4 225.04 64.05 231.44 50.6 238.22 63.86 252.98 65.8 242.47 76.34 245.19 90.98"/><rect class="cls-5" x="144.78" y="108.33" width="311.52" height="333.04" rx="110" ry="110" transform="translate(575.38 -25.69) rotate(90)"/><path class="cls-5" d="M360.21,456.83H239.6a60.18,60.18,0,0,0-60,60v23a209.27,209.27,0,0,0,240.61,4.38V516.83A60.18,60.18,0,0,0,360.21,456.83Z"/><circle class="cls-6" cx="234.25" cy="494.92" r="8.92"/><circle class="cls-6" cx="260.65" cy="494.92" r="8.92"/><circle class="cls-6" cx="287.05" cy="494.92" r="8.92"/><circle class="cls-6" cx="313.45" cy="494.92" r="8.92"/><circle class="cls-7" cx="339.85" cy="494.92" r="8.92"/><circle class="cls-8" cx="366.25" cy="494.92" r="8.92"/><circle class="cls-7" cx="234.25" cy="524.92" r="8.92"/><circle class="cls-8" cx="260.65" cy="524.92" r="8.92"/><circle class="cls-6" cx="287.05" cy="524.92" r="8.92"/><circle class="cls-6" cx="313.45" cy="524.92" r="8.92"/><circle class="cls-6" cx="339.85" cy="524.92" r="8.92"/><circle class="cls-6" cx="366.25" cy="524.92" r="8.92"/><rect class="cls-8" x="304.67" y="516" width="44.1" height="17.83" rx="8.92" ry="8.92"/><rect class="cls-7" x="251.8" y="486" width="44.1" height="17.83" rx="8.92" ry="8.92"/><circle class="cls-7" cx="313.52" cy="551.42" r="8.92"/><circle class="cls-6" cx="339.92" cy="551.42" r="8.92"/><rect class="cls-6" x="250.52" y="543.5" width="44.1" height="17.83" rx="8.92" ry="8.92"/><rect class="cls-9" x="195.95" y="148.17" width="215.17" height="249.35" rx="80" ry="80" transform="translate(576.38 -30.69) rotate(90)"/><circle class="cls-10" cx="260.56" cy="248.47" r="27.96"/><circle class="cls-10" cx="345.63" cy="248.47" r="27.96"/><path class="cls-11" d="M271,236.61s11.79,3.12.5,19.47"/><path class="cls-11" d="M357.21,236.61s11.79,3.12.5,19.47"/><circle class="cls-10" cx="260.56" cy="248.47" r="27.96"/><circle class="cls-10" cx="345.63" cy="248.47" r="27.96"/><path class="cls-11" d="M271,236.61s11.79,3.12.5,19.47"/><path class="cls-11" d="M357.21,236.61s11.79,3.12.5,19.47"/><polyline class="cls-12" points="279.8 317.19 284.9 326.23 324.45 326.23 329.54 317.22"/></svg>