<svg xmlns="http://www.w3.org/2000/svg" viewBox="0 0 115.531 50"><title>CSH_Logo_1</title><rect x="19.995" width="48.796" height="5.367" style="fill:#888b8d"/><rect x="19.995" y="39.264" width="48.796" height="10.736" style="fill:#888b8d"/><rect x="20.025" y="8.575" width="18.508" height="12.939" style="fill:#f18a00"/><rect y="8.575" width="18.508" height="12.939" style="fill:#f18a00"/><rect y="23.016" width="18.508" height="12.939" style="fill:#f18a00"/><rect x="20.025" y="23.016" width="18.508" height="12.939" style="fill:#f18a00"/><path d="M45.76,22.208a13.015,13.015,0,0,1,13.3-13.419,11.7,11.7,0,0,1,10.307,5.485l-3.306,1.75a8.155,8.155,0,0,0-7-3.774c-5.252,0-9.3,4.2-9.3,9.958,0,5.718,4.045,9.958,9.3,9.958a8.157,8.157,0,0,0,7-3.773l3.306,1.75a11.793,11.793,0,0,1-10.307,5.485A12.992,12.992,0,0,1,45.76,22.208Z" style="fill:#231f20"/><path d="M73.109,28.51a10.907,10.907,0,0,0,8.168,3.656c3.85,0,5.68-1.828,5.68-4.006-.234-2.684-2.179-3.267-6.263-4.357-3.851-.972-5.991-1.673-7.7-3.656a5.758,5.758,0,0,1-1.284-3.929c0-4.24,3.812-7.39,9.18-7.39a12.664,12.664,0,0,1,9.452,3.617l-2.256,2.878a10.118,10.118,0,0,0-7.507-3.034c-2.917,0-4.862,1.479-4.862,3.657.194,2.294,2.1,2.917,6.029,3.889,3.89,1.051,6.146,1.79,7.9,3.851a6.3,6.3,0,0,1,1.284,4.123c0,4.24-3.034,7.819-9.8,7.819-4.474,0-7.9-1.517-10.231-4.123Z" style="fill:#231f20"/><path d="M111.64,23.57H97.288V35.161H93.4V9.216h3.891V20.108H111.64V9.216h3.891V35.161H111.64Z" style="fill:#231f20"/></svg>